<svg xmlns="http://www.w3.org/2000/svg" viewBox="0 0 5190 5200">
<g transform="translate(0,5200) scale(1,-1)" fill="#000000" stroke="none">
<path d="M56 5175 c-17 -14 -35 -42 -43 -67 -19 -63 -19 -4953 0 -5016 8 -25
26 -53 43 -67 l29 -24 1218 -1 1218 0 44 25 43 26 36 -22 c29 -17 46 -20 93
-16 32 3 114 10 183 17 69 6 141 17 160 25 19 7 59 16 89 20 30 3 66 12 80 19
14 7 46 16 70 20 24 4 53 13 64 21 12 8 31 15 42 15 11 0 38 9 60 20 22 11 47
20 56 20 9 0 28 9 42 20 14 11 33 20 44 20 23 0 251 115 278 140 11 10 32 21
46 25 15 4 44 22 64 41 21 19 41 34 44 34 7 0 47 27 96 65 11 9 47 36 80 61
102 77 365 343 365 369 0 6 8 18 18 27 36 34 72 79 116 147 25 38 50 73 56 76
5 3 10 13 10 22 0 9 7 24 16 34 18 20 68 111 115 209 17 36 39 82 50 102 10
20 19 48 19 61 0 13 9 32 20 42 11 10 20 29 20 42 0 13 9 41 20 63 11 22 20
53 20 70 0 16 9 47 20 67 12 22 20 57 20 83 0 25 7 56 16 68 10 14 19 61 24
130 5 59 14 125 19 147 6 22 11 73 11 113 0 60 -4 78 -22 103 l-22 30 23 42
c22 41 23 46 12 132 -7 50 -16 136 -21 192 -6 56 -15 114 -21 130 -6 15 -17
60 -24 98 -7 39 -18 84 -24 100 -17 48 -41 127 -53 170 -6 22 -17 47 -24 56
-8 8 -14 22 -14 29 0 8 -9 34 -21 59 -56 125 -71 157 -79 171 -5 8 -24 43 -42
78 -18 35 -39 68 -45 74 -7 6 -13 16 -13 23 0 7 -17 35 -38 62 -20 26 -43 59
-50 73 -7 14 -31 45 -54 70 -22 25 -52 63 -66 85 -37 58 -243 267 -337 341
-130 103 -185 144 -196 144 -3 0 -23 16 -44 35 -21 19 -51 37 -66 40 -16 4
-32 12 -36 19 -9 14 -12 16 -164 94 -56 28 -112 52 -124 52 -11 0 -28 9 -38
20 -9 11 -26 20 -37 20 -11 0 -37 9 -57 20 -21 11 -50 20 -64 20 -15 0 -32 7
-39 15 -6 7 -33 17 -58 20 -26 3 -60 13 -75 21 -15 9 -53 18 -85 21 -31 3 -69
12 -84 19 -15 8 -76 17 -135 20 -59 3 -133 12 -164 20 -47 12 -281 14 -1380
14 l-1324 -1 -29 -24z m2884 -1043 c25 -12 60 -22 78 -22 17 0 49 -9 69 -20
21 -11 48 -20 61 -20 13 0 35 -9 49 -20 14 -11 34 -20 43 -20 10 0 23 -6 29
-14 7 -8 25 -18 41 -21 16 -3 34 -12 40 -20 6 -8 25 -17 41 -20 16 -4 32 -12
36 -18 10 -15 69 -57 81 -57 20 0 215 -186 317 -302 55 -62 123 -171 175 -278
17 -36 37 -76 45 -90 7 -14 16 -41 20 -60 4 -19 14 -44 21 -55 8 -11 14 -29
14 -41 0 -12 9 -51 20 -86 11 -34 22 -108 25 -163 5 -70 13 -114 28 -148 21
-48 21 -49 3 -95 -10 -26 -24 -101 -31 -167 -7 -66 -19 -140 -29 -164 -9 -24
-16 -58 -16 -75 0 -17 -9 -44 -20 -61 -11 -16 -20 -39 -20 -50 0 -20 -12 -49
-70 -165 -55 -109 -60 -117 -75 -130 -8 -7 -15 -17 -15 -22 0 -20 -96 -134
-200 -238 -76 -76 -182 -170 -192 -170 -10 0 -70 -40 -79 -53 -8 -12 -200
-107 -215 -107 -6 0 -17 -7 -24 -15 -7 -8 -22 -15 -34 -15 -12 0 -38 -9 -59
-20 -20 -11 -50 -20 -67 -20 -16 0 -56 -9 -87 -19 -32 -11 -103 -22 -158 -25
-72 -5 -111 -13 -142 -28 -43 -22 -43 -22 -81 -2 -35 18 -71 19 -777 24 l-740
5 -3 1545 c-1 850 0 1551 3 1558 4 11 169 13 927 10 l923 -4 45 -22z"/>
</g>
</svg>
